<svg width="3632" height="2007" xmlns="http://www.w3.org/2000/svg" xmlns:xlink="http://www.w3.org/1999/xlink" xml:space="preserve" overflow="hidden"><g transform="translate(-652 -169)"><text fill="#FFFFFF" font-family="Consolas,Consolas_MSFontService,sans-serif" font-weight="400" font-size="55" transform="matrix(1 0 0 1 1360.83 482)">_____ </text><text fill="#FFFFFF" font-family="Consolas,Consolas_MSFontService,sans-serif" font-weight="400" font-size="55" transform="matrix(1 0 0 1 2081.67 482)">_____ </text><text fill="#FFFFFF" font-family="Consolas,Consolas_MSFontService,sans-serif" font-weight="400" font-size="55" transform="matrix(1 0 0 1 2775.82 482)">_____ </text><text fill="#FFFFFF" font-family="Consolas,Consolas_MSFontService,sans-serif" font-weight="400" font-size="55" transform="matrix(1 0 0 1 3469.97 482)">_____ </text><text fill="#FFFFFF" font-family="Consolas,Consolas_MSFontService,sans-serif" font-weight="400" font-size="55" transform="matrix(1 0 0 1 1334.13 548)">╱╲ </text><text fill="#FFFFFF" font-family="Consolas,Consolas_MSFontService,sans-serif" font-weight="400" font-size="55" transform="matrix(1 0 0 1 1494.32 548)">╲ </text><text fill="#FFFFFF" font-family="Consolas,Consolas_MSFontService,sans-serif" font-weight="400" font-size="55" transform="matrix(1 0 0 1 2054.98 548)">╱╲ </text><text fill="#FFFFFF" font-family="Consolas,Consolas_MSFontService,sans-serif" font-weight="400" font-size="55" transform="matrix(1 0 0 1 2215.16 548)">╲ </text><text fill="#FFFFFF" font-family="Consolas,Consolas_MSFontService,sans-serif" font-weight="400" font-size="55" transform="matrix(1 0 0 1 2749.12 548)">╱╲ </text><text fill="#FFFFFF" font-family="Consolas,Consolas_MSFontService,sans-serif" font-weight="400" font-size="55" transform="matrix(1 0 0 1 2909.31 548)">╲ </text><text fill="#FFFFFF" font-family="Consolas,Consolas_MSFontService,sans-serif" font-weight="400" font-size="55" transform="matrix(1 0 0 1 3443.27 548)">╱╲ </text><text fill="#FFFFFF" font-family="Consolas,Consolas_MSFontService,sans-serif" font-weight="400" font-size="55" transform="matrix(1 0 0 1 3603.46 548)">╲ </text><text fill="#FFFFFF" font-family="Consolas,Consolas_MSFontService,sans-serif" font-weight="400" font-size="55" transform="matrix(1 0 0 1 1307.43 614)">╱┊┊╲ </text><text fill="#FFFFFF" font-family="Consolas,Consolas_MSFontService,sans-serif" font-weight="400" font-size="55" transform="matrix(1 0 0 1 1521.02 614)">╲ </text><text fill="#FFFFFF" font-family="Consolas,Consolas_MSFontService,sans-serif" font-weight="400" font-size="55" transform="matrix(1 0 0 1 2028.28 614)">╱┊┊╲ </text><text fill="#FFFFFF" font-family="Consolas,Consolas_MSFontService,sans-serif" font-weight="400" font-size="55" transform="matrix(1 0 0 1 2241.86 614)">╲ </text><text fill="#FFFFFF" font-family="Consolas,Consolas_MSFontService,sans-serif" font-weight="400" font-size="55" transform="matrix(1 0 0 1 2722.42 614)">╱┊┊╲____╲ </text><text fill="#FFFFFF" font-family="Consolas,Consolas_MSFontService,sans-serif" font-weight="400" font-size="55" transform="matrix(1 0 0 1 3416.57 614)">╱┊┊╲____╲ </text><text fill="#FFFFFF" font-family="Consolas,Consolas_MSFontService,sans-serif" font-weight="400" font-size="55" transform="matrix(1 0 0 1 1307.43 680)">╲┊┊┊╲ </text><text fill="#FFFFFF" font-family="Consolas,Consolas_MSFontService,sans-serif" font-weight="400" font-size="55" transform="matrix(1 0 0 1 1547.72 680)">╲ </text><text fill="#FFFFFF" font-family="Consolas,Consolas_MSFontService,sans-serif" font-weight="400" font-size="55" transform="matrix(1 0 0 1 2028.28 680)">╲┊┊┊╲ </text><text fill="#FFFFFF" font-family="Consolas,Consolas_MSFontService,sans-serif" font-weight="400" font-size="55" transform="matrix(1 0 0 1 2268.56 680)">╲ </text><text fill="#FFFFFF" font-family="Consolas,Consolas_MSFontService,sans-serif" font-weight="400" font-size="55" transform="matrix(1 0 0 1 2695.73 680)">╱┊┊┊╱ </text><text fill="#FFFFFF" font-family="Consolas,Consolas_MSFontService,sans-serif" font-weight="400" font-size="55" transform="matrix(1 0 0 1 2936.01 680)">╱ </text><text fill="#FFFFFF" font-family="Consolas,Consolas_MSFontService,sans-serif" font-weight="400" font-size="55" transform="matrix(1 0 0 1 3389.87 680)">╱┊┊┊╱ </text><text fill="#FFFFFF" font-family="Consolas,Consolas_MSFontService,sans-serif" font-weight="400" font-size="55" transform="matrix(1 0 0 1 3630.15 680)">╱ </text><text fill="#FFFFFF" font-family="Consolas,Consolas_MSFontService,sans-serif" font-weight="400" font-size="55" transform="matrix(1 0 0 1 1254.04 746)">___╲┊┊┊╲ </text><text fill="#FFFFFF" font-family="Consolas,Consolas_MSFontService,sans-serif" font-weight="400" font-size="55" transform="matrix(1 0 0 1 1574.41 746)">╲ </text><text fill="#FFFFFF" font-family="Consolas,Consolas_MSFontService,sans-serif" font-weight="400" font-size="55" transform="matrix(1 0 0 1 1974.88 746)">___╲┊┊┊╲ </text><text fill="#FFFFFF" font-family="Consolas,Consolas_MSFontService,sans-serif" font-weight="400" font-size="55" transform="matrix(1 0 0 1 2295.26 746)">╲ </text><text fill="#FFFFFF" font-family="Consolas,Consolas_MSFontService,sans-serif" font-weight="400" font-size="55" transform="matrix(1 0 0 1 2669.03 746)">╱┊┊┊╱ </text><text fill="#FFFFFF" font-family="Consolas,Consolas_MSFontService,sans-serif" font-weight="400" font-size="55" transform="matrix(1 0 0 1 2882.61 746)">_╱___ </text><text fill="#FFFFFF" font-family="Consolas,Consolas_MSFontService,sans-serif" font-weight="400" font-size="55" transform="matrix(1 0 0 1 3363.17 746)">╱┊┊┊╱ </text><text fill="#FFFFFF" font-family="Consolas,Consolas_MSFontService,sans-serif" font-weight="400" font-size="55" transform="matrix(1 0 0 1 3603.46 746)">╱ </text><text fill="#FFFFFF" font-family="Consolas,Consolas_MSFontService,sans-serif" font-weight="400" font-size="55" transform="matrix(1 0 0 1 1227.34 812)">╱╲ </text><text fill="#FFFFFF" font-family="Consolas,Consolas_MSFontService,sans-serif" font-weight="400" font-size="55" transform="matrix(1 0 0 1 1360.83 812)">╲┊┊┊╲ </text><text fill="#FFFFFF" font-family="Consolas,Consolas_MSFontService,sans-serif" font-weight="400" font-size="55" transform="matrix(1 0 0 1 1601.11 812)">╲ </text><text fill="#FFFFFF" font-family="Consolas,Consolas_MSFontService,sans-serif" font-weight="400" font-size="55" transform="matrix(1 0 0 1 1948.18 812)">╱╲ </text><text fill="#FFFFFF" font-family="Consolas,Consolas_MSFontService,sans-serif" font-weight="400" font-size="55" transform="matrix(1 0 0 1 2081.67 812)">╲┊┊┊╲ </text><text fill="#FFFFFF" font-family="Consolas,Consolas_MSFontService,sans-serif" font-weight="400" font-size="55" transform="matrix(1 0 0 1 2321.96 812)">╲ </text><text fill="#FFFFFF" font-family="Consolas,Consolas_MSFontService,sans-serif" font-weight="400" font-size="55" transform="matrix(1 0 0 1 2642.33 812)">╱┊┊┊╱ </text><text fill="#FFFFFF" font-family="Consolas,Consolas_MSFontService,sans-serif" font-weight="400" font-size="55" transform="matrix(1 0 0 1 2855.91 812)">╱╲ </text><text fill="#FFFFFF" font-family="Consolas,Consolas_MSFontService,sans-serif" font-weight="400" font-size="55" transform="matrix(1 0 0 1 3016.1 812)">╲ </text><text fill="#FFFFFF" font-family="Consolas,Consolas_MSFontService,sans-serif" font-weight="400" font-size="55" transform="matrix(1 0 0 1 3336.48 812)">╱┊┊┊╱ </text><text fill="#FFFFFF" font-family="Consolas,Consolas_MSFontService,sans-serif" font-weight="400" font-size="55" transform="matrix(1 0 0 1 3576.76 812)">╱ </text><text fill="#FFFFFF" font-family="Consolas,Consolas_MSFontService,sans-serif" font-weight="400" font-size="55" transform="matrix(1 0 0 1 1200.64 878)">╱┊┊╲___╲┊┊┊╲ </text><text fill="#FFFFFF" font-family="Consolas,Consolas_MSFontService,sans-serif" font-weight="400" font-size="55" transform="matrix(1 0 0 1 1627.81 878)">╲ </text><text fill="#FFFFFF" font-family="Consolas,Consolas_MSFontService,sans-serif" font-weight="400" font-size="55" transform="matrix(1 0 0 1 1921.49 878)">╱┊┊╲ </text><text fill="#FFFFFF" font-family="Consolas,Consolas_MSFontService,sans-serif" font-weight="400" font-size="55" transform="matrix(1 0 0 1 2108.37 878)">╲┊┊┊╲ </text><text fill="#FFFFFF" font-family="Consolas,Consolas_MSFontService,sans-serif" font-weight="400" font-size="55" transform="matrix(1 0 0 1 2348.65 878)">╲ </text><text fill="#FFFFFF" font-family="Consolas,Consolas_MSFontService,sans-serif" font-weight="400" font-size="55" transform="matrix(1 0 0 1 2615.63 878)">╱┊┊┊╱ </text><text fill="#FFFFFF" font-family="Consolas,Consolas_MSFontService,sans-serif" font-weight="400" font-size="55" transform="matrix(1 0 0 1 2829.22 878)">╱┊┊╲ </text><text fill="#FFFFFF" font-family="Consolas,Consolas_MSFontService,sans-serif" font-weight="400" font-size="55" transform="matrix(1 0 0 1 3042.8 878)">╲ </text><text fill="#FFFFFF" font-family="Consolas,Consolas_MSFontService,sans-serif" font-weight="400" font-size="55" transform="matrix(1 0 0 1 3309.78 878)">╱┊┊┊╱___ ╱ </text><text fill="#FFFFFF" font-family="Consolas,Consolas_MSFontService,sans-serif" font-weight="400" font-size="55" transform="matrix(1 0 0 1 1173.94 944)">╱┊┊┊╱ </text><text fill="#FFFFFF" font-family="Consolas,Consolas_MSFontService,sans-serif" font-weight="400" font-size="55" transform="matrix(1 0 0 1 1387.53 944)">╱┊┊┊┊╲ </text><text fill="#FFFFFF" font-family="Consolas,Consolas_MSFontService,sans-serif" font-weight="400" font-size="55" transform="matrix(1 0 0 1 1654.51 944)">╲ </text><text fill="#FFFFFF" font-family="Consolas,Consolas_MSFontService,sans-serif" font-weight="400" font-size="55" transform="matrix(1 0 0 1 1894.79 944)">╱┊┊┊┊╲ </text><text fill="#FFFFFF" font-family="Consolas,Consolas_MSFontService,sans-serif" font-weight="400" font-size="55" transform="matrix(1 0 0 1 2135.07 944)">╲┊┊┊╲ </text><text fill="#FFFFFF" font-family="Consolas,Consolas_MSFontService,sans-serif" font-weight="400" font-size="55" transform="matrix(1 0 0 1 2375.35 944)">╲ </text><text fill="#FFFFFF" font-family="Consolas,Consolas_MSFontService,sans-serif" font-weight="400" font-size="55" transform="matrix(1 0 0 1 2588.93 944)">╱┊┊┊╱ </text><text fill="#FFFFFF" font-family="Consolas,Consolas_MSFontService,sans-serif" font-weight="400" font-size="55" transform="matrix(1 0 0 1 2829.22 944)">╲┊┊┊╲ </text><text fill="#FFFFFF" font-family="Consolas,Consolas_MSFontService,sans-serif" font-weight="400" font-size="55" transform="matrix(1 0 0 1 3069.5 944)">╲ </text><text fill="#FFFFFF" font-family="Consolas,Consolas_MSFontService,sans-serif" font-weight="400" font-size="55" transform="matrix(1 0 0 1 3283.08 944)">╱┊┊┊┊╲ </text><text fill="#FFFFFF" font-family="Consolas,Consolas_MSFontService,sans-serif" font-weight="400" font-size="55" transform="matrix(1 0 0 1 3550.06 944)">╲ </text><text fill="#FFFFFF" font-family="Consolas,Consolas_MSFontService,sans-serif" font-weight="400" font-size="55" transform="matrix(1 0 0 1 3656.85 944)">_____ </text><text fill="#FFFFFF" font-family="Consolas,Consolas_MSFontService,sans-serif" font-weight="400" font-size="55" transform="matrix(1 0 0 1 1147.25 1010)">╱┊┊┊╱ </text><text fill="#FFFFFF" font-family="Consolas,Consolas_MSFontService,sans-serif" font-weight="400" font-size="55" transform="matrix(1 0 0 1 1360.83 1010)">╱┊┊┊┊┊┊╲ </text><text fill="#FFFFFF" font-family="Consolas,Consolas_MSFontService,sans-serif" font-weight="400" font-size="55" transform="matrix(1 0 0 1 1681.21 1010)">╲ </text><text fill="#FFFFFF" font-family="Consolas,Consolas_MSFontService,sans-serif" font-weight="400" font-size="55" transform="matrix(1 0 0 1 1868.09 1010)">╱┊┊┊┊┊┊╲ </text><text fill="#FFFFFF" font-family="Consolas,Consolas_MSFontService,sans-serif" font-weight="400" font-size="55" transform="matrix(1 0 0 1 2161.77 1010)">╲┊┊┊╲ </text><text fill="#FFFFFF" font-family="Consolas,Consolas_MSFontService,sans-serif" font-weight="400" font-size="55" transform="matrix(1 0 0 1 2402.05 1010)">╲ </text><text fill="#FFFFFF" font-family="Consolas,Consolas_MSFontService,sans-serif" font-weight="400" font-size="55" transform="matrix(1 0 0 1 2562.24 1010)">╱┊┊┊╱ </text><text fill="#FFFFFF" font-family="Consolas,Consolas_MSFontService,sans-serif" font-weight="400" font-size="55" transform="matrix(1 0 0 1 2802.52 1010)">╱ ╲┊┊┊╲ </text><text fill="#FFFFFF" font-family="Consolas,Consolas_MSFontService,sans-serif" font-weight="400" font-size="55" transform="matrix(1 0 0 1 3096.19 1010)">╲ </text><text fill="#FFFFFF" font-family="Consolas,Consolas_MSFontService,sans-serif" font-weight="400" font-size="55" transform="matrix(1 0 0 1 3256.38 1010)">╱┊┊┊┊┊┊╲ </text><text fill="#FFFFFF" font-family="Consolas,Consolas_MSFontService,sans-serif" font-weight="400" font-size="55" transform="matrix(1 0 0 1 3576.76 1010)">╲ ╱╲ </text><text fill="#FFFFFF" font-family="Consolas,Consolas_MSFontService,sans-serif" font-weight="400" font-size="55" transform="matrix(1 0 0 1 3790.34 1010)">╲ </text><text fill="#FFFFFF" font-family="Consolas,Consolas_MSFontService,sans-serif" font-weight="400" font-size="55" transform="matrix(1 0 0 1 1120.55 1076)">╱┊┊┊╱ </text><text fill="#FFFFFF" font-family="Consolas,Consolas_MSFontService,sans-serif" font-weight="400" font-size="55" transform="matrix(1 0 0 1 1334.13 1076)">╱┊┊┊╱╲┊┊┊╲ </text><text fill="#FFFFFF" font-family="Consolas,Consolas_MSFontService,sans-serif" font-weight="400" font-size="55" transform="matrix(1 0 0 1 1707.9 1076)">╲ </text><text fill="#FFFFFF" font-family="Consolas,Consolas_MSFontService,sans-serif" font-weight="400" font-size="55" transform="matrix(1 0 0 1 1841.39 1076)">╱┊┊┊╱╲┊┊┊╲ </text><text fill="#FFFFFF" font-family="Consolas,Consolas_MSFontService,sans-serif" font-weight="400" font-size="55" transform="matrix(1 0 0 1 2188.47 1076)">╲┊┊┊╲____╲ </text><text fill="#FFFFFF" font-family="Consolas,Consolas_MSFontService,sans-serif" font-weight="400" font-size="55" transform="matrix(1 0 0 1 2535.54 1076)">╱┊┊┊╱ </text><text fill="#FFFFFF" font-family="Consolas,Consolas_MSFontService,sans-serif" font-weight="400" font-size="55" transform="matrix(1 0 0 1 2775.82 1076)">╱ </text><text fill="#FFFFFF" font-family="Consolas,Consolas_MSFontService,sans-serif" font-weight="400" font-size="55" transform="matrix(1 0 0 1 2882.61 1076)">╲┊┊┊╲____╲ </text><text fill="#FFFFFF" font-family="Consolas,Consolas_MSFontService,sans-serif" font-weight="400" font-size="55" transform="matrix(1 0 0 1 3229.68 1076)">╱┊┊┊╱╲┊┊┊╲____╱┊┊╲____╲</text><text fill="#FFFFFF" font-family="Consolas,Consolas_MSFontService,sans-serif" font-weight="400" font-size="55" transform="matrix(1 0 0 1 1093.85 1142)">╱┊┊┊╱ </text><text fill="#FFFFFF" font-family="Consolas,Consolas_MSFontService,sans-serif" font-weight="400" font-size="55" transform="matrix(1 0 0 1 1307.43 1142)">╱┊┊┊╱ </text><text fill="#FFFFFF" font-family="Consolas,Consolas_MSFontService,sans-serif" font-weight="400" font-size="55" transform="matrix(1 0 0 1 1494.32 1142)">╲┊┊┊╲____╲ </text><text fill="#FFFFFF" font-family="Consolas,Consolas_MSFontService,sans-serif" font-weight="400" font-size="55" transform="matrix(1 0 0 1 1814.69 1142)">╱┊┊┊╱__╲┊┊┊╲ </text><text fill="#FFFFFF" font-family="Consolas,Consolas_MSFontService,sans-serif" font-weight="400" font-size="55" transform="matrix(1 0 0 1 2215.16 1142)">╲┊┊╱ </text><text fill="#FFFFFF" font-family="Consolas,Consolas_MSFontService,sans-serif" font-weight="400" font-size="55" transform="matrix(1 0 0 1 2428.75 1142)">╱ </text><text fill="#FFFFFF" font-family="Consolas,Consolas_MSFontService,sans-serif" font-weight="400" font-size="55" transform="matrix(1 0 0 1 2508.84 1142)">╱┊┊┊╱____╱ </text><text fill="#FFFFFF" font-family="Consolas,Consolas_MSFontService,sans-serif" font-weight="400" font-size="55" transform="matrix(1 0 0 1 2882.61 1142)">╱┊┊┊╱ </text><text fill="#FFFFFF" font-family="Consolas,Consolas_MSFontService,sans-serif" font-weight="400" font-size="55" transform="matrix(1 0 0 1 3122.89 1142)">╱ </text><text fill="#FFFFFF" font-family="Consolas,Consolas_MSFontService,sans-serif" font-weight="400" font-size="55" transform="matrix(1 0 0 1 3202.99 1142)">╱┊┊┊╱ </text><text fill="#FFFFFF" font-family="Consolas,Consolas_MSFontService,sans-serif" font-weight="400" font-size="55" transform="matrix(1 0 0 1 3389.87 1142)">╲┊┊╱ </text><text fill="#FFFFFF" font-family="Consolas,Consolas_MSFontService,sans-serif" font-weight="400" font-size="55" transform="matrix(1 0 0 1 3576.76 1142)">╱┊┊┊╱ </text><text fill="#FFFFFF" font-family="Consolas,Consolas_MSFontService,sans-serif" font-weight="400" font-size="55" transform="matrix(1 0 0 1 3817.04 1142)">╱</text><text fill="#FFFFFF" font-family="Consolas,Consolas_MSFontService,sans-serif" font-weight="400" font-size="55" transform="matrix(1 0 0 1 1093.85 1208)">╲┊┊╱ </text><text fill="#FFFFFF" font-family="Consolas,Consolas_MSFontService,sans-serif" font-weight="400" font-size="55" transform="matrix(1 0 0 1 1280.74 1208)">╱┊┊┊╱ </text><text fill="#FFFFFF" font-family="Consolas,Consolas_MSFontService,sans-serif" font-weight="400" font-size="55" transform="matrix(1 0 0 1 1521.02 1208)">╲┊┊╱ </text><text fill="#FFFFFF" font-family="Consolas,Consolas_MSFontService,sans-serif" font-weight="400" font-size="55" transform="matrix(1 0 0 1 1734.6 1208)">╱ </text><text fill="#FFFFFF" font-family="Consolas,Consolas_MSFontService,sans-serif" font-weight="400" font-size="55" transform="matrix(1 0 0 1 1814.69 1208)">╲┊┊┊╲ </text><text fill="#FFFFFF" font-family="Consolas,Consolas_MSFontService,sans-serif" font-weight="400" font-size="55" transform="matrix(1 0 0 1 2028.28 1208)">╲┊┊┊╲ </text><text fill="#FFFFFF" font-family="Consolas,Consolas_MSFontService,sans-serif" font-weight="400" font-size="55" transform="matrix(1 0 0 1 2241.86 1208)">╲╱____╱ </text><text fill="#FFFFFF" font-family="Consolas,Consolas_MSFontService,sans-serif" font-weight="400" font-size="55" transform="matrix(1 0 0 1 2508.84 1208)">╲┊┊┊╲ </text><text fill="#FFFFFF" font-family="Consolas,Consolas_MSFontService,sans-serif" font-weight="400" font-size="55" transform="matrix(1 0 0 1 2749.12 1208)">╲ </text><text fill="#FFFFFF" font-family="Consolas,Consolas_MSFontService,sans-serif" font-weight="400" font-size="55" transform="matrix(1 0 0 1 2882.61 1208)">╲┊┊╱ </text><text fill="#FFFFFF" font-family="Consolas,Consolas_MSFontService,sans-serif" font-weight="400" font-size="55" transform="matrix(1 0 0 1 3096.19 1208)">╱ </text><text fill="#FFFFFF" font-family="Consolas,Consolas_MSFontService,sans-serif" font-weight="400" font-size="55" transform="matrix(1 0 0 1 3202.99 1208)">╲┊┊╱ </text><text fill="#FFFFFF" font-family="Consolas,Consolas_MSFontService,sans-serif" font-weight="400" font-size="55" transform="matrix(1 0 0 1 3416.57 1208)">╲╱___╱┊┊┊╱ </text><text fill="#FFFFFF" font-family="Consolas,Consolas_MSFontService,sans-serif" font-weight="400" font-size="55" transform="matrix(1 0 0 1 3790.34 1208)">╱</text><text fill="#FFFFFF" font-family="Consolas,Consolas_MSFontService,sans-serif" font-weight="400" font-size="55" transform="matrix(1 0 0 1 1120.55 1274)">╲╱___╱┊┊┊╱ </text><text fill="#FFFFFF" font-family="Consolas,Consolas_MSFontService,sans-serif" font-weight="400" font-size="55" transform="matrix(1 0 0 1 1467.62 1274)">___╲╱____╱ </text><text fill="#FFFFFF" font-family="Consolas,Consolas_MSFontService,sans-serif" font-weight="400" font-size="55" transform="matrix(1 0 0 1 1841.39 1274)">╲┊┊┊╲ </text><text fill="#FFFFFF" font-family="Consolas,Consolas_MSFontService,sans-serif" font-weight="400" font-size="55" transform="matrix(1 0 0 1 2054.98 1274)">╲┊┊┊╲ </text><text fill="#FFFFFF" font-family="Consolas,Consolas_MSFontService,sans-serif" font-weight="400" font-size="55" transform="matrix(1 0 0 1 2295.26 1274)">╲ </text><text fill="#FFFFFF" font-family="Consolas,Consolas_MSFontService,sans-serif" font-weight="400" font-size="55" transform="matrix(1 0 0 1 2535.54 1274)">╲┊┊┊╲ </text><text fill="#FFFFFF" font-family="Consolas,Consolas_MSFontService,sans-serif" font-weight="400" font-size="55" transform="matrix(1 0 0 1 2775.82 1274)">╲ </text><text fill="#FFFFFF" font-family="Consolas,Consolas_MSFontService,sans-serif" font-weight="400" font-size="55" transform="matrix(1 0 0 1 2909.31 1274)">╲╱____╱ </text><text fill="#FFFFFF" font-family="Consolas,Consolas_MSFontService,sans-serif" font-weight="400" font-size="55" transform="matrix(1 0 0 1 3229.68 1274)">╲╱____╱ </text><text fill="#FFFFFF" font-family="Consolas,Consolas_MSFontService,sans-serif" font-weight="400" font-size="55" transform="matrix(1 0 0 1 3523.36 1274)">╱┊┊┊╱ </text><text fill="#FFFFFF" font-family="Consolas,Consolas_MSFontService,sans-serif" font-weight="400" font-size="55" transform="matrix(1 0 0 1 3763.64 1274)">╱ </text><text fill="#FFFFFF" font-family="Consolas,Consolas_MSFontService,sans-serif" font-weight="400" font-size="55" transform="matrix(1 0 0 1 1227.34 1340)">╱┊┊┊╱ </text><text fill="#FFFFFF" font-family="Consolas,Consolas_MSFontService,sans-serif" font-weight="400" font-size="55" transform="matrix(1 0 0 1 1440.92 1340)">╱╲ </text><text fill="#FFFFFF" font-family="Consolas,Consolas_MSFontService,sans-serif" font-weight="400" font-size="55" transform="matrix(1 0 0 1 1601.11 1340)">╲ </text><text fill="#FFFFFF" font-family="Consolas,Consolas_MSFontService,sans-serif" font-weight="400" font-size="55" transform="matrix(1 0 0 1 1868.09 1340)">╲┊┊┊╲ </text><text fill="#FFFFFF" font-family="Consolas,Consolas_MSFontService,sans-serif" font-weight="400" font-size="55" transform="matrix(1 0 0 1 2081.67 1340)">╲┊┊┊╲____╲ </text><text fill="#FFFFFF" font-family="Consolas,Consolas_MSFontService,sans-serif" font-weight="400" font-size="55" transform="matrix(1 0 0 1 2562.24 1340)">╲┊┊┊╲ </text><text fill="#FFFFFF" font-family="Consolas,Consolas_MSFontService,sans-serif" font-weight="400" font-size="55" transform="matrix(1 0 0 1 2802.52 1340)">╲____ </text><text fill="#FFFFFF" font-family="Consolas,Consolas_MSFontService,sans-serif" font-weight="400" font-size="55" transform="matrix(1 0 0 1 3496.66 1340)">╱┊┊┊╱ </text><text fill="#FFFFFF" font-family="Consolas,Consolas_MSFontService,sans-serif" font-weight="400" font-size="55" transform="matrix(1 0 0 1 3736.94 1340)">╱ </text><text fill="#FFFFFF" font-family="Consolas,Consolas_MSFontService,sans-serif" font-weight="400" font-size="55" transform="matrix(1 0 0 1 1200.64 1406)">╱┊┊┊╱ </text><text fill="#FFFFFF" font-family="Consolas,Consolas_MSFontService,sans-serif" font-weight="400" font-size="55" transform="matrix(1 0 0 1 1414.23 1406)">╱┊┊╲____╲ </text><text fill="#FFFFFF" font-family="Consolas,Consolas_MSFontService,sans-serif" font-weight="400" font-size="55" transform="matrix(1 0 0 1 1894.79 1406)">╲┊┊┊╲ </text><text fill="#FFFFFF" font-family="Consolas,Consolas_MSFontService,sans-serif" font-weight="400" font-size="55" transform="matrix(1 0 0 1 2108.37 1406)">╲┊┊╱ </text><text fill="#FFFFFF" font-family="Consolas,Consolas_MSFontService,sans-serif" font-weight="400" font-size="55" transform="matrix(1 0 0 1 2321.96 1406)">╱ </text><text fill="#FFFFFF" font-family="Consolas,Consolas_MSFontService,sans-serif" font-weight="400" font-size="55" transform="matrix(1 0 0 1 2588.93 1406)">╲┊┊┊╲ </text><text fill="#FFFFFF" font-family="Consolas,Consolas_MSFontService,sans-serif" font-weight="400" font-size="55" transform="matrix(1 0 0 1 2775.82 1406)">╱╲ </text><text fill="#FFFFFF" font-family="Consolas,Consolas_MSFontService,sans-serif" font-weight="400" font-size="55" transform="matrix(1 0 0 1 2936.01 1406)">╲ </text><text fill="#FFFFFF" font-family="Consolas,Consolas_MSFontService,sans-serif" font-weight="400" font-size="55" transform="matrix(1 0 0 1 3469.97 1406)">╱┊┊┊╱ </text><text fill="#FFFFFF" font-family="Consolas,Consolas_MSFontService,sans-serif" font-weight="400" font-size="55" transform="matrix(1 0 0 1 3710.25 1406)">╱ </text><text fill="#FFFFFF" font-family="Consolas,Consolas_MSFontService,sans-serif" font-weight="400" font-size="55" transform="matrix(1 0 0 1 1200.64 1472)">╲┊┊╱ </text><text fill="#FFFFFF" font-family="Consolas,Consolas_MSFontService,sans-serif" font-weight="400" font-size="55" transform="matrix(1 0 0 1 1387.53 1472)">╱┊┊┊╱ </text><text fill="#FFFFFF" font-family="Consolas,Consolas_MSFontService,sans-serif" font-weight="400" font-size="55" transform="matrix(1 0 0 1 1627.81 1472)">╱ </text><text fill="#FFFFFF" font-family="Consolas,Consolas_MSFontService,sans-serif" font-weight="400" font-size="55" transform="matrix(1 0 0 1 1921.49 1472)">╲┊┊┊╲ </text><text fill="#FFFFFF" font-family="Consolas,Consolas_MSFontService,sans-serif" font-weight="400" font-size="55" transform="matrix(1 0 0 1 2135.07 1472)">╲╱____╱ </text><text fill="#FFFFFF" font-family="Consolas,Consolas_MSFontService,sans-serif" font-weight="400" font-size="55" transform="matrix(1 0 0 1 2615.63 1472)">╲┊┊┊╲╱┊┊╲____╲ </text><text fill="#FFFFFF" font-family="Consolas,Consolas_MSFontService,sans-serif" font-weight="400" font-size="55" transform="matrix(1 0 0 1 3443.27 1472)">╱┊┊┊╱ </text><text fill="#FFFFFF" font-family="Consolas,Consolas_MSFontService,sans-serif" font-weight="400" font-size="55" transform="matrix(1 0 0 1 3683.55 1472)">╱ </text><text fill="#FFFFFF" font-family="Consolas,Consolas_MSFontService,sans-serif" font-weight="400" font-size="55" transform="matrix(1 0 0 1 1227.34 1538)">╲╱___╱┊┊┊╱ </text><text fill="#FFFFFF" font-family="Consolas,Consolas_MSFontService,sans-serif" font-weight="400" font-size="55" transform="matrix(1 0 0 1 1601.11 1538)">╱ </text><text fill="#FFFFFF" font-family="Consolas,Consolas_MSFontService,sans-serif" font-weight="400" font-size="55" transform="matrix(1 0 0 1 1948.18 1538)">╲┊┊┊╲ </text><text fill="#FFFFFF" font-family="Consolas,Consolas_MSFontService,sans-serif" font-weight="400" font-size="55" transform="matrix(1 0 0 1 2188.47 1538)">╲ </text><text fill="#FFFFFF" font-family="Consolas,Consolas_MSFontService,sans-serif" font-weight="400" font-size="55" transform="matrix(1 0 0 1 2642.33 1538)">╲┊┊┊┊┊┊╱ </text><text fill="#FFFFFF" font-family="Consolas,Consolas_MSFontService,sans-serif" font-weight="400" font-size="55" transform="matrix(1 0 0 1 2962.71 1538)">╱ </text><text fill="#FFFFFF" font-family="Consolas,Consolas_MSFontService,sans-serif" font-weight="400" font-size="55" transform="matrix(1 0 0 1 3416.57 1538)">╱┊┊┊╱ </text><text fill="#FFFFFF" font-family="Consolas,Consolas_MSFontService,sans-serif" font-weight="400" font-size="55" transform="matrix(1 0 0 1 3656.85 1538)">╱ </text><text fill="#FFFFFF" font-family="Consolas,Consolas_MSFontService,sans-serif" font-weight="400" font-size="55" transform="matrix(1 0 0 1 1334.13 1604)">╱┊┊┊╱ </text><text fill="#FFFFFF" font-family="Consolas,Consolas_MSFontService,sans-serif" font-weight="400" font-size="55" transform="matrix(1 0 0 1 1574.41 1604)">╱ </text><text fill="#FFFFFF" font-family="Consolas,Consolas_MSFontService,sans-serif" font-weight="400" font-size="55" transform="matrix(1 0 0 1 1974.88 1604)">╲┊┊┊╲____╲ </text><text fill="#FFFFFF" font-family="Consolas,Consolas_MSFontService,sans-serif" font-weight="400" font-size="55" transform="matrix(1 0 0 1 2669.03 1604)">╲┊┊┊┊╱ </text><text fill="#FFFFFF" font-family="Consolas,Consolas_MSFontService,sans-serif" font-weight="400" font-size="55" transform="matrix(1 0 0 1 2936.01 1604)">╱ </text><text fill="#FFFFFF" font-family="Consolas,Consolas_MSFontService,sans-serif" font-weight="400" font-size="55" transform="matrix(1 0 0 1 3389.87 1604)">╱┊┊┊╱ </text><text fill="#FFFFFF" font-family="Consolas,Consolas_MSFontService,sans-serif" font-weight="400" font-size="55" transform="matrix(1 0 0 1 3630.15 1604)">╱ </text><text fill="#FFFFFF" font-family="Consolas,Consolas_MSFontService,sans-serif" font-weight="400" font-size="55" transform="matrix(1 0 0 1 1307.43 1670)">╱┊┊┊╱ </text><text fill="#FFFFFF" font-family="Consolas,Consolas_MSFontService,sans-serif" font-weight="400" font-size="55" transform="matrix(1 0 0 1 1547.72 1670)">╱ </text><text fill="#FFFFFF" font-family="Consolas,Consolas_MSFontService,sans-serif" font-weight="400" font-size="55" transform="matrix(1 0 0 1 2001.58 1670)">╲┊┊╱ </text><text fill="#FFFFFF" font-family="Consolas,Consolas_MSFontService,sans-serif" font-weight="400" font-size="55" transform="matrix(1 0 0 1 2215.16 1670)">╱ </text><text fill="#FFFFFF" font-family="Consolas,Consolas_MSFontService,sans-serif" font-weight="400" font-size="55" transform="matrix(1 0 0 1 2695.73 1670)">╲┊┊╱ </text><text fill="#FFFFFF" font-family="Consolas,Consolas_MSFontService,sans-serif" font-weight="400" font-size="55" transform="matrix(1 0 0 1 2909.31 1670)">╱ </text><text fill="#FFFFFF" font-family="Consolas,Consolas_MSFontService,sans-serif" font-weight="400" font-size="55" transform="matrix(1 0 0 1 3389.87 1670)">╲┊┊╱ </text><text fill="#FFFFFF" font-family="Consolas,Consolas_MSFontService,sans-serif" font-weight="400" font-size="55" transform="matrix(1 0 0 1 3603.46 1670)">╱ </text><text fill="#FFFFFF" font-family="Consolas,Consolas_MSFontService,sans-serif" font-weight="400" font-size="55" transform="matrix(1 0 0 1 1307.43 1736)">╲┊┊╱ </text><text fill="#FFFFFF" font-family="Consolas,Consolas_MSFontService,sans-serif" font-weight="400" font-size="55" transform="matrix(1 0 0 1 1521.02 1736)">╱ </text><text fill="#FFFFFF" font-family="Consolas,Consolas_MSFontService,sans-serif" font-weight="400" font-size="55" transform="matrix(1 0 0 1 2028.28 1736)">╲╱____╱ </text><text fill="#FFFFFF" font-family="Consolas,Consolas_MSFontService,sans-serif" font-weight="400" font-size="55" transform="matrix(1 0 0 1 2722.42 1736)">╲╱____╱ </text><text fill="#FFFFFF" font-family="Consolas,Consolas_MSFontService,sans-serif" font-weight="400" font-size="55" transform="matrix(1 0 0 1 3416.57 1736)">╲╱____╱</text><text fill="#FFFFFF" font-family="Consolas,Consolas_MSFontService,sans-serif" font-weight="400" font-size="55" transform="matrix(1 0 0 1 1334.13 1802)">╲╱____╱</text><path d="M0 0 58.174 143.162" stroke="#FFFFFF" stroke-width="3.4375" stroke-miterlimit="8" stroke-dasharray="3.4375 3.4375" fill="none" fill-rule="evenodd" transform="matrix(-1 0 0 1 1040.67 1232.5)"/><path d="M0 0 59.3469 146.048" stroke="#FFFFFF" stroke-width="3.4375" stroke-miterlimit="8" stroke-dasharray="3.4375 3.4375" fill="none" fill-rule="evenodd" transform="matrix(-1 0 0 1 1323.85 1912.5)"/><path d="M1267.44 2057.41 982.5 1375.5" stroke="#FFFFFF" stroke-width="3.4375" stroke-miterlimit="8" stroke-dasharray="3.4375 3.4375" fill="none" fill-rule="evenodd"/><path d="M0 0 130.883 0.000360892" stroke="#FFFFFF" stroke-width="3.4375" stroke-miterlimit="8" stroke-dasharray="3.4375 3.4375" fill="none" fill-rule="evenodd" transform="matrix(-1 0 0 1 1398.38 2056.5)"/><path d="M0 0 59.4754 146.364" stroke="#FFFFFF" stroke-width="3.4375" stroke-miterlimit="8" stroke-dasharray="3.4375 3.4375" fill="none" fill-rule="evenodd" transform="matrix(-1 0 0 1 1457.98 1911.5)"/><path d="M0 0 131.082 322.582" stroke="#FFFFFF" stroke-width="3.4375" stroke-miterlimit="8" stroke-dasharray="3.4375 3.4375" fill="none" fill-rule="evenodd" transform="matrix(-1 0 0 1 1122.58 1725.5)"/><path d="M0 0 338.146 0.000360892" stroke="#FFFFFF" stroke-width="3.4375" stroke-miterlimit="8" stroke-dasharray="3.4375 3.4375" fill="none" fill-rule="evenodd" transform="matrix(-1 0 0 1 991.646 2047.5)"/><path d="M1346.5 2057.5 1389.61 2165.25" stroke="#FFFFFF" stroke-width="3.4375" stroke-miterlimit="8" stroke-dasharray="3.4375 3.4375" fill="none" fill-rule="evenodd"/><path d="M0 0 326.049 0.000360892" stroke="#FFFFFF" stroke-width="3.4375" stroke-miterlimit="8" stroke-dasharray="3.4375 3.4375" fill="none" fill-rule="evenodd" transform="matrix(-1 0 0 1 1715.55 2165.5)"/><text fill="#FFFFFF" font-family="Fira Code,Fira Code_MSFontService,sans-serif" font-weight="400" font-size="50" transform="matrix(1 0 0 1 708.308 2005)">code</text><text fill="#FFFFFF" font-family="Fira Code,Fira Code_MSFontService,sans-serif" font-weight="400" font-size="50" transform="matrix(1 0 0 1 1455.83 2132)">docs</text><path d="M0 0 557.343 0.000360892" stroke="#FFFFFF" stroke-width="3.4375" stroke-miterlimit="8" stroke-dasharray="3.4375 3.4375" fill="none" fill-rule="evenodd" transform="matrix(-1 0 0 1 2832.84 359.5)"/><path d="M2518.5 263.5 2556.37 358.149" stroke="#FFFFFF" stroke-width="3.4375" stroke-miterlimit="8" stroke-dasharray="3.4375 3.4375" fill="none" fill-rule="evenodd"/><path d="M0 0 569.035 0.820669" stroke="#FFFFFF" stroke-width="3.4375" stroke-miterlimit="8" stroke-dasharray="3.4375 3.4375" fill="none" fill-rule="evenodd" transform="matrix(-1 0 0 1 2518.54 260.5)"/><text fill="#FFFFFF" font-family="Fira Code,Fira Code_MSFontService,sans-serif" font-weight="400" font-size="50" transform="matrix(1 0 0 1 1995.04 235)">community</text><path d="M0 0 35.414 87.1508" stroke="#FFFFFF" stroke-width="3.4375" stroke-miterlimit="8" stroke-dasharray="3.4375 3.4375" fill="none" fill-rule="evenodd" transform="matrix(-1 0 0 1 2274.91 360.5)"/><path d="M0 0 33.5789 82.6346" stroke="#FFFFFF" stroke-width="3.4375" stroke-miterlimit="8" stroke-dasharray="3.4375 3.4375" fill="none" fill-rule="evenodd" transform="matrix(-1 0 0 1 2831.08 355.5)"/><path d="M0 0 158.857 0.000360892" stroke="#FFFFFF" stroke-width="3.4375" stroke-miterlimit="8" stroke-dasharray="3.4375 3.4375" fill="none" fill-rule="evenodd" transform="matrix(-1 0 0 1 3792.36 1743.5)"/><path d="M0 0 268.267 660.184" stroke="#FFFFFF" stroke-width="3.4375" stroke-miterlimit="8" stroke-dasharray="3.4375 3.4375" fill="none" fill-rule="evenodd" transform="matrix(-1 0 0 1 4059.77 1083.5)"/><path d="M0 0 158.857 0.000360892" stroke="#FFFFFF" stroke-width="3.4375" stroke-miterlimit="8" stroke-dasharray="3.4375 3.4375" fill="none" fill-rule="evenodd" transform="matrix(-1 0 0 1 4064.36 1083.5)"/><path d="M3929.5 1408.5 3981.18 1537.67" stroke="#FFFFFF" stroke-width="3.4375" stroke-miterlimit="8" stroke-dasharray="3.4375 3.4375" fill="none" fill-rule="evenodd"/><path d="M0 0 297.47 0.000360892" stroke="#FFFFFF" stroke-width="3.4375" stroke-miterlimit="8" stroke-dasharray="3.4375 3.4375" fill="none" fill-rule="evenodd" transform="matrix(-1 0 0 1 4277.97 1541.5)"/><text fill="#FFFFFF" font-family="Fira Code,Fira Code_MSFontService,sans-serif" font-weight="400" font-size="50" transform="matrix(1 0 0 1 4055.19 1505)">try</text><path d="M4063.82 1083.79 3815.5 489.5" stroke="#FFFFFF" stroke-width="3.4375" stroke-miterlimit="8" stroke-dasharray="3.4375 3.4375" fill="none" fill-rule="evenodd"/><path d="M0 0 158.857 0.000360892" stroke="#FFFFFF" stroke-width="3.4375" stroke-miterlimit="8" stroke-dasharray="3.4375 3.4375" fill="none" fill-rule="evenodd" transform="matrix(-1 0 0 1 3815.36 489.5)"/><path d="M0 0 438.539 0.000360892" stroke="#FFFFFF" stroke-width="3.4375" stroke-miterlimit="8" stroke-dasharray="3.4375 3.4375" fill="none" fill-rule="evenodd" transform="matrix(-1 0 0 1 4096.04 261.5)"/><text fill="#FFFFFF" font-family="Fira Code,Fira Code_MSFontService,sans-serif" font-weight="400" font-size="50" transform="matrix(1 0 0 1 3769.5 233)">blog</text><path d="M0 0 158.857 0.000360892" stroke="#FFFFFF" stroke-width="3.4375" stroke-miterlimit="8" stroke-dasharray="3.4375 3.4375" fill="none" fill-rule="evenodd" transform="matrix(-1 0 0 1 4085.36 741.5)"/><path d="M4085.38 744.649 3883.5 261.5" stroke="#FFFFFF" stroke-width="3.4375" stroke-miterlimit="8" stroke-dasharray="3.4375 3.4375" fill="none" fill-rule="evenodd"/></g></svg>